<svg width="17" height="11" viewBox="0 0 17 11" xmlns="http://www.w3.org/2000/svg">
<path d="M6.54796 10.6984C6.24382 10.6984 5.92179 10.5911 5.68921 10.4122L0.554609 6.47623C0.196797 6.20787 0 5.77849 0 5.34912C0 4.91974 0.214687 4.49037 0.554609 4.22201L5.68921 0.286075C6.11859 -0.0359561 6.70898 -0.0896278 7.19202 0.14295C7.67507 0.375528 7.97921 0.876465 7.97921 1.41318V2.57607H8.80218C12.5234 2.57607 15.7974 4.95553 16.9424 8.51576C17.0855 8.98091 16.9603 9.48185 16.5846 9.80388C16.2089 10.1259 15.708 10.2154 15.2607 10.0007L13.418 9.15982C11.8794 8.46208 10.2692 8.10427 8.60538 8.10427H7.96132V9.26716C7.96132 9.82177 7.65718 10.3048 7.17413 10.5374C6.97734 10.6447 6.76265 10.6984 6.54796 10.6984ZM6.54796 1.1985C6.51218 1.1985 6.45851 1.21639 6.42273 1.23428L1.28812 5.17021C1.23445 5.20599 1.21656 5.25967 1.21656 5.31334C1.21656 5.36701 1.25234 5.42068 1.28812 5.45646L6.42273 9.3924C6.4764 9.42818 6.54796 9.44607 6.61952 9.41029C6.69109 9.37451 6.72687 9.32083 6.72687 9.24927V7.46021C6.72687 7.12029 6.99523 6.85193 7.33515 6.85193H8.58749C10.4302 6.85193 12.2193 7.24552 13.8831 8.01482L15.7258 8.85568C14.7598 5.81427 11.9509 3.77474 8.7664 3.77474H7.33515C6.99523 3.77474 6.72687 3.50639 6.72687 3.16646V1.39529C6.72687 1.32373 6.69109 1.25217 6.61952 1.23428C6.60163 1.21639 6.56585 1.1985 6.54796 1.1985Z"/>
</svg>
