<svg width="25" height="25" viewBox="0 0 25 25" xmlns="http://www.w3.org/2000/svg">
<path fill-rule="evenodd" clip-rule="evenodd" d="M10.1768 10.2407C10.1768 10.7809 9.73969 11.2181 9.20432 11.2181C8.66405 11.2181 8.22692 10.7809 8.22692 10.2407C8.22692 9.06189 8.70334 7.99607 9.47446 7.22495C10.2456 6.45383 11.3114 5.97741 12.4902 5.97741C13.669 5.97741 14.7348 6.45383 15.5059 7.22495C16.277 7.99607 16.7534 9.06189 16.7534 10.2407C16.7534 11.4194 16.277 12.4853 15.5059 13.2564C14.9558 13.8065 14.2534 14.2092 13.4676 14.391V14.8134C13.4676 15.3536 13.0305 15.7908 12.4902 15.7908C11.9499 15.7908 11.5128 15.3536 11.5128 14.8134V13.5265C11.5128 12.9912 11.9499 12.554 12.4902 12.554C13.1287 12.554 13.7083 12.2937 14.1257 11.8762C14.5432 11.4587 14.8035 10.8792 14.8035 10.2407C14.8035 9.60216 14.5432 9.02259 14.1257 8.60511C13.7083 8.18762 13.1287 7.92731 12.4902 7.92731C11.8517 7.92731 11.2721 8.18762 10.8546 8.60511C10.4371 9.02259 10.1768 9.60216 10.1768 10.2407ZM12.3919 19.0177C11.8517 19.0177 11.4145 18.5855 11.4145 18.0452C11.4145 17.5049 11.8517 17.0678 12.3919 17.0678H12.6081C13.1483 17.0678 13.5855 17.5049 13.5855 18.0452C13.5855 18.5855 13.1483 19.0177 12.6081 19.0177H12.3919ZM12.5 23.0452C15.4126 23.0452 18.0501 21.8664 19.9558 19.9558C21.8664 18.0501 23.0452 15.4126 23.0452 12.5C23.0452 9.58743 21.8664 6.9499 19.9558 5.03929C18.0501 3.1336 15.4126 1.9499 12.5 1.9499C9.58743 1.9499 6.9499 3.1336 5.03929 5.03929C3.1336 6.9499 1.9499 9.58743 1.9499 12.5C1.9499 15.4126 3.1336 18.0501 5.03929 19.9558C6.9499 21.8664 9.58743 23.0452 12.5 23.0452ZM21.336 21.336C19.0766 23.6002 15.9479 25 12.5 25C9.04715 25 5.92338 23.6002 3.65914 21.336C1.3998 19.0766 0 15.9479 0 12.5C0 9.04715 1.3998 5.92338 3.65914 3.65914C5.92338 1.3998 9.04715 0 12.5 0C15.9479 0 19.0766 1.3998 21.336 3.65914C23.6002 5.92338 25 9.04715 25 12.5C25 15.9479 23.6002 19.0766 21.336 21.336Z" />
</svg>
