<svg width="16" height="18" viewBox="0 0 16 18" xmlns="http://www.w3.org/2000/svg">
<path d="M14.4405 2.49228H11.0306V0.724677C11.0306 0.426237 10.7887 0.184677 10.4906 0.184677H4.62872C4.33028 0.184677 4.08872 0.426237 4.08872 0.724677V2.49228H0.67916C0.38072 2.49228 0.13916 2.73384 0.13916 3.03228V5.33988C0.13916 5.63832 0.38072 5.87988 0.67916 5.87988H1.15796V17.2753C1.15796 17.5734 1.39952 17.8153 1.69796 17.8153H13.4217C13.7198 17.8153 13.9617 17.5734 13.9617 17.2753V5.87988H14.4405C14.7386 5.87988 14.9805 5.63832 14.9805 5.33988V3.03228C14.9805 2.7342 14.7386 2.49228 14.4405 2.49228ZM5.16872 1.26468H9.9506V2.49228H5.16872V1.26468ZM1.21916 3.57228H13.9005V4.79988H1.21916V3.57228ZM12.8817 16.7353H2.23796V5.87988H4.08872V13.1375C4.08872 13.4356 4.33028 13.6775 4.62872 13.6775C4.92716 13.6775 5.16872 13.4356 5.16872 13.1375V5.87988H7.01984V13.1375C7.01984 13.4356 7.2614 13.6775 7.55984 13.6775C7.85792 13.6775 8.09984 13.4356 8.09984 13.1375V5.87988H9.95096V13.1375C9.95096 13.4356 10.1929 13.6775 10.491 13.6775C10.789 13.6775 11.031 13.4356 11.031 13.1375V5.87988H12.8821V16.7353H12.8817Z"/>
</svg>
