<svg width="90" height="90" viewBox="0 0 90 90" fill="none" xmlns="http://www.w3.org/2000/svg">
<path d="M85.365 43.085H81.535H77.676H73.846H69.986H66.156H62.296V46.945H66.156H69.986H73.846H77.676H81.535H85.365H89.226V43.085H85.365Z" fill="#9EABA5"/>
<path d="M81.535 77.705H77.676V81.535H81.535V77.705Z" fill="#9EABA5"/>
<path d="M81.535 8.465H77.676V12.325H81.535V8.465Z" fill="#9EABA5"/>
<path d="M77.676 73.846H73.846V77.705H77.676V73.846Z" fill="#9EABA5"/>
<path d="M77.676 12.325H73.846V16.155H77.676V12.325Z" fill="#9EABA5"/>
<path d="M73.845 70.016H69.986V73.846H73.845V70.016Z" fill="#9EABA5"/>
<path d="M73.845 16.155H69.986V20.015H73.845V16.155Z" fill="#9EABA5"/>
<path d="M69.986 66.154H66.156V70.015H69.986V66.154Z" fill="#9EABA5"/>
<path d="M69.986 20.015H66.156V23.845H69.986V20.015Z" fill="#9EABA5"/>
<path d="M66.156 62.324H62.296V66.154H66.156V62.324Z" fill="#9EABA5"/>
<path d="M66.156 23.845H62.296V27.705H66.156V23.845Z" fill="#9EABA5"/>
<path d="M62.296 58.465H58.466V62.324H62.296V58.465Z" fill="#9EABA5"/>
<path d="M62.296 27.705H58.466V31.535H62.296V27.705Z" fill="#9EABA5"/>
<path d="M43.056 66.154V70.016V73.846V77.705V81.535V85.395V89.225H46.916V85.395V81.535V77.705V73.846V70.016V66.154V62.324H43.056V66.154Z" fill="#9EABA5"/>
<path d="M43.056 4.635V8.465V12.325V16.155V20.015V23.845V27.705H46.916V23.845V20.015V16.155V12.325V8.465V4.635V0.775002H43.056V4.635Z" fill="#9EABA5"/>
<path d="M31.535 58.465H27.676V62.324H31.535V58.465Z" fill="#9EABA5"/>
<path d="M31.535 27.705H27.676V31.535H31.535V27.705Z" fill="#9EABA5"/>
<path d="M27.676 62.324H23.846V66.154H27.676V62.324Z" fill="#9EABA5"/>
<path d="M27.676 23.845H23.846V27.705H27.676V23.845Z" fill="#9EABA5"/>
<path d="M23.845 66.154H19.986V70.015H23.845V66.154Z" fill="#9EABA5"/>
<path d="M23.845 20.015H19.986V23.845H23.845V20.015Z" fill="#9EABA5"/>
<path d="M19.986 70.016H16.156V73.846H19.986V70.016Z" fill="#9EABA5"/>
<path d="M19.986 16.155H16.156V20.015H19.986V16.155Z" fill="#9EABA5"/>
<path d="M16.156 73.846H12.296V77.705H16.156V73.846Z" fill="#9EABA5"/>
<path d="M16.156 12.325H12.296V16.155H16.156V12.325Z" fill="#9EABA5"/>
<path d="M12.296 77.705H8.466V81.535H12.296V77.705Z" fill="#9EABA5"/>
<path d="M12.296 46.945H16.156H19.986H23.846H27.676V43.085H23.846H19.986H16.156H12.296H8.46599H4.60499H0.774994V46.945H4.60499H8.46599H12.296Z" fill="#9EABA5"/>
<path d="M12.296 8.465H8.466V12.325H12.296V8.465Z" fill="#9EABA5"/>
</svg>
